<?xml version="1.0" standalone="no"?>
<!DOCTYPE svg PUBLIC "-//W3C//DTD SVG 20010904//EN"
 "http://www.w3.org/TR/2001/REC-SVG-20010904/DTD/svg10.dtd">
<svg version="1.0" xmlns="http://www.w3.org/2000/svg"
 width="310.000000pt" height="310.000000pt" viewBox="0 0 310.000000 310.000000"
 preserveAspectRatio="xMidYMid meet">
<metadata>
Created by potrace 1.16, written by Peter Selinger 2001-2019
</metadata>
<g transform="translate(0.000000,310.000000) scale(0.100000,-0.100000)"
fill="#000000" stroke="none">
<path d="M1250 3084 c-14 -7 -34 -14 -46 -14 -43 0 -243 -73 -359 -130 -372
-185 -660 -519 -784 -910 -18 -58 -40 -118 -47 -133 -20 -42 -20 -683 0 -724
8 -15 28 -73 46 -128 90 -283 257 -528 495 -724 151 -125 317 -218 488 -272
53 -17 100 -35 103 -40 7 -13 770 -12 792 1 9 5 51 21 92 34 396 126 741 428
925 811 46 97 115 296 115 334 0 9 7 29 15 45 22 41 21 568 0 606 -8 14 -14
34 -15 46 0 43 -73 243 -129 354 -80 161 -165 276 -306 415 -134 133 -262 225
-415 298 -105 50 -258 104 -323 113 -23 4 -52 13 -64 20 -32 20 -546 18 -583
-2z m511 -279 c321 -59 594 -227 797 -488 29 -38 52 -76 50 -85 -4 -21 -33
-27 -47 -10 -163 200 -208 245 -334 333 -77 54 -227 126 -318 154 -127 39
-214 51 -368 51 -166 0 -254 -14 -396 -62 -405 -137 -721 -498 -801 -917 -15
-78 -33 -109 -54 -96 -34 21 20 244 97 405 179 373 502 625 908 710 117 24
348 26 466 5z m-177 -111 c9 -3 16 -15 16 -25 0 -39 37 -35 54 6 2 6 15 -3 28
-19 26 -31 48 -29 48 5 0 24 45 27 54 4 5 -13 10 -14 27 -4 16 8 28 8 46 0 13
-6 29 -9 34 -5 5 3 18 2 29 -1 24 -8 27 -51 6 -80 -12 -17 -16 -17 -31 -5 -9
7 -33 14 -53 14 -30 1 -37 5 -38 21 -2 38 -4 39 -20 17 -15 -22 -19 -23 -157
-18 -78 3 -145 5 -149 5 -5 1 -8 20 -8 42 l0 42 39 -7 c23 -3 42 -2 46 4 7 12
8 12 29 4z m513 -256 c6 -7 13 -30 16 -52 8 -49 32 -86 56 -86 32 0 78 33 93
65 18 40 50 44 75 9 10 -15 39 -50 66 -78 76 -81 69 -91 -93 -127 -52 -11
-122 -27 -155 -35 -33 -7 -89 -20 -125 -28 -36 -9 -96 -23 -135 -31 -38 -9
-97 -23 -130 -30 -33 -7 -91 -21 -130 -30 -38 -9 -99 -23 -135 -31 -36 -8 -92
-21 -125 -29 -33 -7 -89 -20 -125 -28 -78 -18 -272 -63 -355 -82 -33 -8 -89
-21 -125 -29 -126 -29 -246 -57 -293 -68 -30 -8 -51 -8 -57 -2 -12 12 20 142
43 178 11 17 27 26 43 26 17 0 30 9 42 30 12 22 25 30 44 30 19 0 35 10 54 35
26 34 28 35 95 35 l69 0 27 56 c24 51 28 55 57 52 29 -3 31 -6 36 -48 4 -36 9
-45 24 -45 13 0 23 11 31 34 6 19 17 37 23 39 15 5 98 -79 107 -108 8 -25 40
-26 50 -2 3 9 9 49 12 87 8 105 44 133 95 75 31 -35 61 -38 82 -9 21 31 108
44 148 23 17 -9 31 -14 32 -12 2 2 7 32 12 68 8 61 11 65 36 68 22 3 30 -2 38
-22 11 -30 12 -30 65 -12 25 8 45 24 53 40 9 19 21 26 41 26 34 0 45 -12 62
-69 7 -23 18 -44 23 -46 6 -1 27 -8 46 -15 45 -16 82 -14 96 5 6 8 14 48 18
87 6 72 20 98 52 98 6 0 16 -6 21 -12z m398 -308 c8 -12 -36 -30 -76 -30 -16
0 -29 -4 -29 -9 0 -5 -29 -12 -65 -16 -38 -4 -68 -12 -73 -20 -4 -9 -29 -15
-65 -17 -69 -4 -79 -21 -17 -29 34 -4 41 -7 27 -13 -10 -5 -35 -5 -55 -1 -61
13 -155 12 -159 -2 -3 -9 9 -13 42 -13 28 0 44 -4 40 -10 -3 -5 -21 -10 -40
-10 -19 0 -37 5 -40 10 -3 6 -33 10 -66 10 -46 0 -59 -3 -59 -15 0 -11 12 -15
43 -15 35 -1 39 -2 24 -11 -11 -6 -34 -8 -55 -4 -67 12 -145 11 -149 -2 -3 -9
9 -13 44 -13 35 0 44 -3 33 -10 -20 -13 -73 -13 -87 1 -13 13 -129 8 -126 -6
1 -5 24 -12 50 -15 34 -4 43 -7 30 -12 -27 -11 -105 -10 -112 2 -7 11 -64 14
-89 4 -31 -12 -16 -24 30 -24 27 0 43 -4 39 -10 -8 -13 -80 -13 -129 1 -40 11
-86 5 -86 -11 0 -6 16 -10 35 -10 19 0 35 -5 35 -11 0 -8 -31 -9 -105 -4 -75
5 -105 4 -105 -4 0 -6 13 -11 29 -11 17 0 32 -4 36 -9 8 -13 -33 -18 -75 -9
-50 11 -126 10 -115 -1 6 -5 26 -14 45 -20 27 -8 12 -9 -72 -5 -75 4 -108 3
-108 -5 0 -6 10 -11 23 -11 12 0 28 -4 36 -9 24 -15 -51 -24 -95 -12 -47 13
-101 14 -108 2 -3 -5 13 -12 36 -15 32 -5 39 -9 28 -16 -20 -13 -65 -12 -110
1 -23 7 -50 8 -67 4 l-28 -8 29 -6 c17 -3 29 -10 28 -16 -2 -15 -50 -18 -97
-6 -23 6 -54 7 -71 2 -29 -8 -29 -8 14 -15 53 -10 45 -26 -13 -26 -53 0 -97
18 -93 38 4 20 92 46 244 71 28 5 60 13 70 19 11 5 43 12 72 15 29 3 58 10 65
14 6 4 39 13 72 20 33 6 89 19 125 27 36 9 90 20 120 27 30 6 75 17 100 25 25
8 58 14 73 14 16 0 38 5 49 11 11 6 44 15 72 19 28 5 70 13 94 19 23 6 61 16
85 22 23 6 62 14 87 18 25 5 68 14 95 21 28 7 73 18 100 25 28 7 75 18 105 24
30 7 82 18 115 26 33 8 89 21 125 29 36 8 81 19 100 25 48 12 88 13 95 1z
m295 -228 c0 -15 4 -32 9 -37 5 -6 11 -36 15 -67 7 -67 -1 -75 -93 -89 -31 -4
-70 -11 -87 -14 -25 -6 -33 -3 -48 19 -23 35 -44 33 -61 -7 -26 -62 -72 -75
-62 -18 12 71 41 158 56 174 24 25 96 40 121 27 24 -13 27 -71 5 -90 -22 -18
-19 -57 5 -65 25 -8 36 -1 43 27 17 80 41 154 51 160 26 17 46 8 46 -20z
m-369 -81 c35 -35 37 -70 8 -118 -35 -55 -94 -93 -147 -93 -60 0 -82 20 -82
75 0 69 51 126 140 158 32 12 53 6 81 -22z m-223 -47 c2 -15 -5 -24 -26 -33
-24 -10 -32 -23 -47 -74 -21 -75 -27 -88 -48 -101 -30 -19 -37 5 -20 67 15 54
15 60 0 86 -20 34 -12 44 50 67 53 19 87 14 91 -12z m-200 -36 c2 -11 -8 -23
-28 -33 l-32 -17 26 -27 c29 -30 32 -48 14 -85 -14 -31 -87 -69 -125 -64 -44
5 -39 31 9 53 53 25 56 35 18 57 -20 11 -30 25 -30 41 0 57 138 127 148 75z
m-289 -47 c19 -12 7 -39 -24 -51 -31 -12 -31 -17 0 -42 53 -42 20 -115 -66
-143 -48 -16 -52 -16 -68 -1 -18 19 -15 23 50 59 l32 18 -36 34 c-20 19 -38
35 -41 35 -11 0 -36 -60 -36 -87 -1 -34 -33 -75 -77 -97 -42 -21 -66 -20 -94
3 -22 18 -22 20 -10 77 20 91 37 124 62 124 20 0 21 -3 14 -42 -19 -117 -20
-110 6 -106 20 2 27 14 42 63 25 82 39 109 61 113 11 2 23 -4 29 -13 8 -15 12
-14 36 8 14 14 42 32 61 40 43 19 42 19 59 8z m-416 -133 c48 -57 -14 -170
-112 -203 -45 -15 -52 -15 -80 -1 -41 22 -49 66 -22 128 21 49 47 72 109 94
45 16 81 10 105 -18z m-243 -37 c0 -26 -49 -182 -62 -198 -6 -7 -20 -13 -31
-13 -11 0 -36 -6 -55 -12 -32 -12 -35 -11 -57 16 -28 35 -49 30 -69 -19 -21
-48 -67 -49 -56 0 16 71 53 172 66 182 26 19 102 27 119 13 19 -16 19 -59 0
-84 -19 -25 -19 -50 0 -66 12 -10 19 -10 27 -2 13 13 48 117 48 142 0 9 7 26
16 38 19 28 54 30 54 3z m-343 -77 c4 -10 -4 -24 -22 -38 -19 -15 -24 -25 -17
-30 17 -11 15 -46 -4 -53 -12 -4 -14 -14 -10 -38 8 -41 -7 -54 -73 -62 -39 -4
-52 -2 -56 9 -5 12 38 185 48 195 9 8 85 32 105 32 12 1 25 -6 29 -15z m1953
-14 c0 -15 -32 -26 -145 -50 -55 -11 -113 -25 -130 -29 -16 -5 -75 -19 -130
-30 -55 -12 -113 -26 -130 -31 -16 -5 -55 -13 -85 -19 -30 -5 -68 -14 -83 -20
-16 -6 -40 -11 -54 -11 -14 0 -46 -6 -72 -14 -25 -8 -82 -22 -126 -31 -44 -9
-96 -21 -115 -26 -19 -6 -64 -17 -100 -24 -36 -7 -95 -20 -133 -29 -37 -9 -95
-22 -130 -30 -34 -8 -93 -22 -132 -31 -38 -9 -99 -23 -135 -31 -86 -17 -157
-33 -200 -45 -135 -34 -152 -37 -157 -22 -3 8 -4 15 -2 17 5 4 138 34 199 45
25 4 61 12 80 18 33 11 84 22 193 43 26 5 62 13 80 19 17 5 77 19 132 31 55
12 111 26 125 30 14 5 48 12 75 16 28 4 67 13 89 20 21 8 53 14 72 14 18 0 35
4 39 9 3 6 27 13 53 16 26 4 67 13 91 21 25 8 56 14 70 14 14 0 43 6 66 14 41
14 114 31 195 45 25 4 61 12 80 18 38 12 114 29 197 42 28 5 58 13 65 18 7 4
40 13 73 19 82 15 85 15 85 4z m-2160 -35 c0 -20 -6 -27 -30 -31 -16 -4 -30
-10 -30 -15 0 -4 14 -17 30 -29 23 -16 30 -29 30 -54 0 -27 -7 -38 -38 -60
-41 -28 -125 -45 -136 -28 -8 14 21 42 56 54 35 12 36 31 3 52 -44 29 -29 83
33 115 54 29 82 27 82 -4z m2295 -100 c-8 -71 -54 -210 -101 -311 -57 -124
-140 -240 -249 -349 -164 -164 -332 -266 -550 -331 -67 -20 -277 -53 -342 -54
-71 0 -276 27 -343 47 -244 70 -470 212 -632 398 -80 91 -97 120 -81 136 18
18 46 1 83 -48 60 -81 185 -199 272 -256 225 -150 426 -211 693 -211 145 0
183 4 320 41 320 84 613 323 766 625 41 81 99 244 99 278 0 41 28 90 51 90 20
0 21 -3 14 -55z m-158 -32 c-8 -76 -40 -143 -68 -143 -12 0 -36 -16 -53 -35
-22 -23 -41 -35 -59 -35 -20 0 -30 -7 -37 -24 -12 -34 -23 -38 -96 -41 -73 -2
-75 -4 -107 -66 -35 -70 -86 -66 -87 7 0 31 -24 63 -37 50 -4 -4 -12 -21 -18
-39 -13 -42 -50 -49 -66 -14 -6 14 -22 31 -35 38 -13 7 -24 20 -24 30 0 24
-34 43 -47 26 -5 -6 -15 -50 -21 -96 -16 -118 -38 -138 -89 -81 -31 35 -62 38
-88 10 -11 -12 -31 -20 -49 -20 -17 0 -38 -5 -46 -10 -10 -6 -25 -3 -47 10
-18 10 -34 16 -36 12 -3 -4 -8 -33 -11 -64 -4 -31 -14 -62 -21 -68 -22 -18
-52 -3 -64 32 -10 28 -12 30 -29 16 -9 -8 -29 -18 -43 -21 -14 -4 -31 -18 -37
-32 -10 -22 -18 -26 -49 -23 -35 3 -38 6 -50 47 -16 55 -23 62 -76 78 -86 26
-102 13 -112 -92 -8 -79 -19 -99 -57 -93 -19 2 -25 13 -35 58 -7 32 -21 62
-32 72 -34 27 -62 12 -126 -67 l-25 -30 -30 35 c-16 19 -48 54 -70 76 -26 26
-42 52 -43 69 -2 31 -6 29 218 80 217 50 250 58 450 104 72 16 173 39 225 51
52 11 142 32 200 45 148 35 263 61 350 80 41 9 100 22 130 30 30 8 109 27 175
41 66 15 145 32 175 39 30 7 66 13 79 14 23 1 24 -1 18 -56z m-957 -775 c15
-9 24 -9 44 1 36 20 56 8 56 -32 0 -44 -20 -63 -51 -47 -16 9 -28 9 -46 1 -17
-8 -29 -8 -37 -2 -9 7 -23 7 -44 -1 -25 -10 -37 -10 -51 -1 -13 8 -22 8 -29 1
-5 -5 -18 -8 -28 -6 -24 4 -39 77 -18 85 24 9 44 -5 44 -32 0 -16 6 -25 15
-25 10 0 15 10 15 31 0 31 1 32 39 26 21 -2 45 -1 52 4 18 11 16 11 39 -3z"/>
</g>
</svg>
